<svg width="826" height="711" viewBox="0 0 826 711" fill="none" xmlns="http://www.w3.org/2000/svg">
<path d="M41.9151 710.306H0C0 638.319 12.9737 568.345 38.4222 502.902C48.402 477.732 59.8787 453.569 73.3514 429.909L78.8403 420.344L89.8181 419.337C111.275 417.827 145.206 413.296 183.628 399.201C239.515 379.065 284.923 346.847 318.854 303.554C345.301 269.826 363.763 231.063 373.743 187.77L328.834 28.6941L371.248 0L383.224 9.0613C410.668 29.7009 439.61 49.3338 469.549 65.9462C488.51 77.0211 508.47 87.0892 528.43 96.1505C566.852 94.6403 605.773 90.613 643.696 85.0756C691.1 78.0279 738.504 68.4632 784.91 55.878L803.872 50.844L810.359 69.9734C821.835 105.212 826.825 141.457 824.829 178.206C823.332 212.941 815.349 246.669 801.876 278.383L763.454 261.771C774.93 234.587 781.417 205.39 782.914 175.689C784.411 151.022 781.916 126.355 775.928 102.191C734.512 112.763 692.098 121.321 649.684 127.362C608.767 133.403 566.852 136.926 524.937 138.94H519.947L515.456 136.926C493.001 126.355 470.547 115.28 448.591 102.695C425.638 89.6062 402.684 75.0075 380.729 59.4019L417.654 186.764L416.656 191.798C405.179 243.648 383.723 289.962 352.286 329.731C313.365 379.568 261.47 415.813 198.099 438.97C161.174 452.058 128.24 458.099 104.289 460.616C94.309 479.242 85.3272 498.875 77.3434 518.508C53.8909 578.917 41.9151 643.353 41.9151 710.306Z" fill="white"/>
<path d="M153.689 710.306V701.748C153.689 680.605 159.178 664.496 169.656 654.428C186.123 639.325 210.573 640.332 212.07 640.332H212.569H513.46H514.458H515.955C517.452 640.332 537.411 638.822 551.882 652.414C564.357 663.992 570.844 683.122 570.844 710.306H612.759C612.759 670.537 601.282 640.332 579.327 620.196C552.88 596.536 520.446 597.543 512.462 598.046H215.064C207.58 597.543 170.155 597.039 141.713 622.713C121.753 640.836 111.774 667.516 111.774 701.244V709.802H153.689V710.306Z" fill="white"/>
<path d="M648.686 409.269C676.629 505.923 689.603 607.107 688.106 710.306H730.021C731.518 603.08 717.546 497.868 689.104 397.187C683.116 376.548 676.629 355.908 669.145 335.772L758.963 373.024L774.93 333.758L651.181 282.411L618.747 321.173L623.238 332.751C632.718 357.922 641.201 383.595 648.686 409.269Z" fill="white"/>
</svg>
